<svg width="174" height="24" fill="none" xmlns="http://www.w3.org/2000/svg"><g clip-path="url(#a)"><path d="M7.492 10.763h-.02a9.963 9.963 0 0 1-2.64-.864 1.583 1.583 0 0 1-.812-1.423 1.617 1.617 0 0 1 .52-1.21 2.579 2.579 0 0 1 1.83-.596c.88.009 1.753.165 2.582.463a3.056 3.056 0 0 0 3.525-1.115l.135-.21a10.401 10.401 0 0 0-6.107-1.752 6.65 6.65 0 0 0-4.316 1.328 4.248 4.248 0 0 0-1.658 3.48 3.696 3.696 0 0 0 1.754 3.286 14.172 14.172 0 0 0 4.175 1.48 9.87 9.87 0 0 1 2.562.846 1.605 1.605 0 0 1 .829 1.422c.003.403-.141.792-.405 1.096a2.745 2.745 0 0 1-2.197.768 8.954 8.954 0 0 1-3.448-.694 3.243 3.243 0 0 0-1.965-.192 2.81 2.81 0 0 0-1.624.98L0 18.125c.97.735 2.058 1.3 3.218 1.672a12.74 12.74 0 0 0 3.853.579 7.172 7.172 0 0 0 4.566-1.326 4.293 4.293 0 0 0 1.676-3.576 3.676 3.676 0 0 0-1.6-3.152 11.823 11.823 0 0 0-4.237-1.558m12.847-6.42h-.385v15.738h3.448V7.42a2.989 2.989 0 0 0-.886-2.172 2.967 2.967 0 0 0-2.177-.904Zm18.786 7.189-4.432-7.189H30.69v15.738h3.333V9.164l5.048 7.688 5.068-7.746V20.08h3.386V4.343h-3.97l-4.445 7.19Zm28.804-1.807a4.89 4.89 0 0 0-1.714-3.96 7.133 7.133 0 0 0-4.722-1.422h-6.665v15.738h.348a3.095 3.095 0 0 0 2.178-.904 3.08 3.08 0 0 0 .905-2.172v-1.802h2.987a7.522 7.522 0 0 0 4.893-1.462 4.94 4.94 0 0 0 1.791-4.016h-.001Zm-4.314-1.942a2.62 2.62 0 0 1 .886 2.114 2.466 2.466 0 0 1-.906 2.038c-.714.5-1.576.744-2.447.694h-2.89V7.018h2.87a3.718 3.718 0 0 1 2.486.768M77.43 4.344H74v15.738h11.676a2.883 2.883 0 0 0-.983-2.019 2.951 2.951 0 0 0-2.08-.825h-5.184l.001-12.894Zm26.665 2.729v-2.73H91.668V20.08h12.543v-2.73h-9.172v-3.824h5.126c.708 0 1.389-.268 1.908-.75a3.285 3.285 0 0 0 1.099-1.846h-8.131V7.066l9.053.006Zm38.804-2.729h-3.429v15.738h3.371V9.492l8.266 10.59h3.159V4.344h-3.372v10.245l-7.995-10.245Zm30.962 0h-12.427v15.738h12.562v-2.725h-9.17v-3.83h5.102a2.81 2.81 0 0 0 1.909-.75 3.284 3.284 0 0 0 1.098-1.846h-8.111V7.067h9.037V4.344Z" fill="#17181D"/><path d="M125.448 23.41c-.73.256-1.483.445-2.247.566l.231-.085-2.729.064.778-.188-.841-.044c.013 0 .028-.014.041-.042a.057.057 0 0 0 .019.014.06.06 0 0 0 .023.007.053.053 0 0 1 .018-.015.067.067 0 0 1 .024-.006l.02-.02h-.145l.671-.148h.021a.114.114 0 0 0-.086-.022l.378-.042-.928-.063.63-.041-.751-.086.021-.041a1.59 1.59 0 0 1 .883-.126c.224.079.459.122.696.126.252-.07.518-.154.798-.252l-.127-.041-.671.062.464-.124-.567-.148-.253-.02.123-.014-1.16-.314.126.021a6.472 6.472 0 0 1 2.018-.796l-.631.042.126-.146.336-.168-.504-.041c.155-.014.309-.035.463-.063l-.63.063a.08.08 0 0 1 .03-.017.08.08 0 0 1 .033-.004l.127-.042h.13v.02c.061-.024.123-.046.188-.062h-.125l.272-.041-.232-.02h-.085c.19-.11.387-.209.588-.295a.75.75 0 0 1 .189-.063h-.083a2.9 2.9 0 0 1 .357-.145l-.756.125.609-.209a7.853 7.853 0 0 0 4.074-2.283 7.949 7.949 0 0 0 2.479-5.886 8.07 8.07 0 0 0-2.479-5.93 7.912 7.912 0 0 0-4.725-2.345 8.72 8.72 0 0 0-1.175-.083 8.194 8.194 0 0 0-5.944 2.43 8.823 8.823 0 0 0-1.47 1.968 7.15 7.15 0 0 0-.797 1.157 7.735 7.735 0 0 0-.294 3.52 9.577 9.577 0 0 0 1.16 3.541 8.813 8.813 0 0 1-1.071-6.596.498.498 0 0 0-.075.13 3.343 3.343 0 0 0-.125.838h-.06a8.752 8.752 0 0 0 .316 3.646 1.107 1.107 0 0 1-.062-.147l-.254-.947.063.695-.314-1.719v.19l-.085-.357.21 2.095-.293-1.157.188 1.068c-.177-.7-.282-1.416-.314-2.137a9.53 9.53 0 0 0 1.555 5.008c.139.223.287.454.44.694l.63.419-.967-1.403.063.253-.547-1.157c.253.377.512.754.777 1.132a8.712 8.712 0 0 0 1.262 1.49v-.022a9.784 9.784 0 0 1-.84-1.048c.084.116.167.216.252.316l-.567-.819.696.84-.503-.734a8.952 8.952 0 0 0 2.877 2.534c.266.14.54.266.819.377l-.295-.063.441.19a.252.252 0 0 0 .043.145l-.126-.02.126.061.02.042-.844-.202.753.248-1.092-.21.651.398-.504-.126.358.209a.396.396 0 0 0-.126.022l.021.02.126.042.42.125a6.732 6.732 0 0 1-4.891-3.388 12.45 12.45 0 0 1-1.239-2.83l.21.796a14.776 14.776 0 0 1-.189-.565.125.125 0 0 1-.028.063.139.139 0 0 1-.055.04c-.155.029-.106.51.146 1.445.144.3.312.587.505.86.139.195.279.397.419.607l-.126-.314 1.344 1.572-.777-1.005a15.494 15.494 0 0 0 3.003 2.802l-1.638-.964 1.534 1.089a7.001 7.001 0 0 1-1.807-1.273 83.546 83.546 0 0 0-1.196-1.132l.21.294a9.447 9.447 0 0 1-1.301-1.948c.11.362.243.774.398 1.236l-1.385-2.454c.139.362.3.725.481 1.089l-.105-.336c.289.593.627 1.16 1.008 1.698a10.778 10.778 0 0 0 2.877 2.807l-.963-.57 1.931 1.237-1.093-.523c.441.318.921.579 1.428.776.532.18 1.071.348 1.617.501v.147c-.464.017-.924-.1-1.323-.336a4.176 4.176 0 0 0-.696-.272l.966.503-.378-.104.464.145-.42-.083c.452.165.915.298 1.386.398v.148l-.696-.043.696.19v.062a9.76 9.76 0 0 1-4.032-1.677l-.105-.084c-1.145-.75-1.901-1.217-2.268-1.398a2.435 2.435 0 0 1-.945-1.027 31.948 31.948 0 0 1-.928-1.823 73.527 73.527 0 0 1-.841-1.718c-.112-.49-.196-.988-.251-1.488a12.55 12.55 0 0 1 0-2.912c.139-.96.366-1.908.676-2.829a14.05 14.05 0 0 1 1.26-2.601 12.69 12.69 0 0 1 2.605-2.928l-.4.25A10.92 10.92 0 0 1 119.106.28l.524-.126a9.9 9.9 0 0 1 2.101-.147l1.159.063.121.046h.273l.733.172 1.305.31 1.807.776.483.272 2.078 1.462.904.88a11.65 11.65 0 0 1 1.739 2.347c.503.841.899 1.742 1.176 2.682.278.94.44 1.912.483 2.893a11.36 11.36 0 0 1-1.071 5.573 10.9 10.9 0 0 1-1.261 2.054 1.672 1.672 0 0 1-.146.21 9.683 9.683 0 0 1-7.329 4.212 3.633 3.633 0 0 1-.547.041 13.615 13.615 0 0 0 1.81-.59Zm-10.564-2.515c.087.059.172.122.252.19l-.501-.487-1.767-1.714a8.1 8.1 0 0 0 2.016 2.011Zm-.378-2.388-1.47-2.053c.07.182.148.364.232.544.1.183.212.358.337.524.21.309.435.617.673.926l-.169-.378.397.437Zm-2.519-6.683c-.014.483.014.967.083 1.446a10.555 10.555 0 0 1-.021-1.467h-.021a.06.06 0 0 0-.041.021Z" fill="url(#b)"/></g><defs><linearGradient id="b" x1="114.675" y1="2.8" x2="131.875" y2="20.04" gradientUnits="userSpaceOnUse"><stop stop-color="#EA5540"/><stop offset="1" stop-color="#8C1D82"/></linearGradient><clipPath id="a"><path fill="#fff" d="M0 0h174v24H0z"/></clipPath></defs></svg>