<svg width="20" height="20" fill="none" xmlns="http://www.w3.org/2000/svg"><g clip-path="url(#a)" fill="#2E3238"><path fill-rule="evenodd" clip-rule="evenodd" d="M1.423.244A.833.833 0 1 0 .244 1.423l5.177 5.176a5.151 5.151 0 0 0-1.035.302C3.34 7.324 2.43 8.033 1.902 8.563a.794.794 0 0 0-.234.57c0 .214.084.43.248.593l3.598 3.598-2.322 2.322a.822.822 0 0 0-.212.796.744.744 0 0 0 .58.58c.275.073.58.002.795-.213l2.322-2.321 3.597 3.597a.843.843 0 0 0 .584.248h.009a.799.799 0 0 0 .57-.234c.53-.53 1.24-1.438 1.662-2.484.13-.32.238-.67.303-1.035l5.175 5.176a.833.833 0 1 0 1.179-1.179L1.423.244Zm9.992 12.35L7.407 8.585a.84.84 0 0 1-.326-.131c-.543-.367-1.24-.352-2.047-.026a5.989 5.989 0 0 0-1.339.78l4.068 4.067a.812.812 0 0 1 .02.02l3.01 3.01c.292-.384.582-.85.78-1.338.325-.806.34-1.504-.026-2.047a.84.84 0 0 1-.132-.326Z"/><path d="m16.348 7.172-2.821 2.821 1.177 1.177L18.1 7.775a.8.8 0 0 0 .234-.58.764.764 0 0 0-.197-.527.85.85 0 0 0-.051-.056l-1.81-1.81a.828.828 0 0 0-.02-.02L13.39 1.915a.865.865 0 0 0-.055-.051.767.767 0 0 0-.525-.197h-.003a.803.803 0 0 0-.58.234L8.83 5.296l1.178 1.178 2.821-2.822 1.89 1.89a.81.81 0 0 0 .02.021l1.61 1.609Z"/></g><defs><clipPath id="a"><path fill="#fff" d="M0 0h20v20H0z"/></clipPath></defs></svg>